# xmcd CD database file
#
# Track frame offsets:
#	150
#	30225
#	52337
#	69839
#	91949
#	113469
#	125697
#	155822
#	182217
#	217394
#	239252
#	261959
#	284493
#
# Disc length: 4152 seconds
#
# Revision: 0
# Processed by: cddbd v1.5.2PL0 Copyright (c) Steve Scherf et al.
# Submitted via: CDex 1.70beta1
#
DISCID=c310360d
DTITLE=Sting - The Soul Cages (+bonus)
DYEAR=1991
DGENRE=Jazz
TTITLE0=Island Of Souls
TTITLE1=All This Time
TTITLE2=Mad About You
TTITLE3=Jeremiah Blues (Pt 1)
TTITLE4=Why Should I Cry For You
TTITLE5=Saint Agnes And The Burning Train
TTITLE6=The Wild Wild Sea
TTITLE7=The Soul Cages
TTITLE8=When The Angels Fall
TTITLE9=Why Should I Cry For You (remix)
TTITLE10=It's Probably Me
TTITLE11=This Cowboy Song
TTITLE12=When We Dance
EXTD=YEAR: 1991
EXTT0=
EXTT1=
EXTT2=
EXTT3=
EXTT4=
EXTT5=
EXTT6=
EXTT7=
EXTT8=
EXTT9=
EXTT10=
EXTT11=
EXTT12=
PLAYORDER=
